<svg width="415" height="446" viewBox="0 0 415 446" fill="none" xmlns="http://www.w3.org/2000/svg">
<path d="M116.15 34.04C129.62 22.81 149.59 18.81 166.66 14.55C183.73 10.28 200.68 7.21001 218.57 8.46001C236.46 9.71001 256.8 15.41 274.01 22.04C291.23 28.66 307.36 37.27 321.84 48.19C336.33 59.12 350 72.66 360.93 87.59C371.86 102.52 380.58 119.98 387.42 137.78C394.25 155.59 399.05 175.29 401.96 194.42C404.86 213.54 407.32 233.62 404.85 252.51C402.38 271.4 394.34 290.21 387.12 307.77C379.91 325.34 372.47 343.21 361.54 357.9C350.61 372.59 335.78 385 321.52 395.92C307.26 406.83 292.88 416.76 275.98 423.4C259.08 430.04 238.42 434.44 220.12 435.75C201.82 437.07 183.18 435.2 166.18 431.3C149.17 427.41 133.42 421.22 118.1 412.4C102.79 403.58 87.59 391.37 74.29 378.39C61 365.4 47.76 350.78 38.31 334.49C28.87 318.19 22.27 299.01 17.63 280.63C12.99 262.24 10.63 243.51 10.45 224.19C10.28 204.87 11.6 182.98 16.6 164.72C21.6 146.46 30.88 130.76 40.45 114.61C50.01 98.45 59.73 82.36 73.99 67.78C88.26 53.2 115.33 33.55 126.03 27.13C136.72 20.7 136.71 25.39 138.16 29.24M83.66 53.75C95.45 39.77 119.31 33.66 135.72 26.28C152.13 18.9 165.07 11.51 182.15 9.49001C199.23 7.47001 220.67 10.76 238.18 14.17C255.68 17.58 270.79 22.34 287.16 29.93C303.53 37.51 322.44 46.96 336.41 59.7C350.37 72.43 360.79 90.74 370.93 106.34C381.07 121.94 391.89 135.8 397.22 153.31C402.56 170.81 402.39 192.02 402.95 211.38C403.5 230.73 404.23 250.78 400.55 269.44C396.86 288.1 389.19 305.8 380.83 323.33C372.48 340.86 362.37 360.93 350.43 374.62C338.49 388.3 324.68 396 309.2 405.42C293.71 414.85 275.11 426.53 257.51 431.17C239.91 435.81 221.06 434.51 203.58 433.28C186.1 432.05 169.54 429.02 152.63 423.79C135.73 418.56 117.41 411.8 102.15 401.9C86.89 392 72.59 378.71 61.07 364.41C49.54 350.11 41.25 333.16 32.98 316.09C24.71 299.01 15.06 280.39 11.46 261.97C7.86 243.56 9.56 224.73 11.36 205.6C13.15 186.47 16.49 165.82 22.23 147.21C27.97 128.59 35.24 109.8 45.8 93.91C56.35 78.02 78.82 58.04 85.56 51.88C92.3 45.73 83.89 53.75 86.25 56.99" stroke="#4FBFFF" stroke-width="4" stroke-linecap="round"/>
<path d="M119.2 130.933C119.2 130.933 122.74 131.123 129.82 131.503C136.907 131.89 144.047 132.197 151.24 132.423C158.433 132.643 165.837 132.727 173.45 132.673C181.057 132.62 188.95 132.41 197.13 132.043C205.303 131.67 213.353 131.32 221.28 130.993C229.213 130.667 237.043 130.25 244.77 129.743C252.503 129.243 258.313 128.567 262.2 127.713C266.08 126.867 269.503 126.077 272.47 125.343C275.437 124.61 277.307 124.247 278.08 124.253C278.853 124.26 279.607 124.393 280.34 124.653C281.073 124.907 281.743 125.273 282.35 125.753C282.963 126.227 283.483 126.787 283.91 127.433C284.337 128.08 284.65 128.777 284.85 129.523C285.043 130.277 285.117 131.04 285.07 131.813C285.017 132.587 284.84 133.33 284.54 134.043C284.247 134.757 283.847 135.407 283.34 135.993C282.833 136.58 282.243 137.067 281.57 137.453C280.903 137.847 280.19 138.12 279.43 138.273C278.67 138.427 277.907 138.457 277.14 138.363C276.373 138.277 275.64 138.067 274.94 137.733C274.24 137.4 273.613 136.963 273.06 136.423C272.5 135.883 272.043 135.27 271.69 134.583C271.337 133.89 271.103 133.16 270.99 132.393C270.87 131.627 270.88 130.863 271.02 130.103C271.153 129.343 271.407 128.623 271.78 127.943C272.147 127.263 272.617 126.66 273.19 126.133C273.757 125.607 274.393 125.187 275.1 124.873C275.807 124.553 276.547 124.357 277.32 124.283C278.087 124.21 278.85 124.26 279.61 124.433C280.363 124.613 281.067 124.907 281.72 125.313C282.38 125.72 282.957 126.223 283.45 126.823C283.943 127.417 284.33 128.077 284.61 128.803C284.89 129.523 285.047 130.27 285.08 131.043C285.107 131.817 285.013 132.577 284.8 133.323C284.58 134.063 284.25 134.753 283.81 135.393C283.37 136.027 282.837 136.573 282.21 137.033C281.59 137.493 280.91 137.843 280.17 138.083C279.437 138.317 279.07 138.433 279.07 138.433C279.07 138.427 277.543 138.513 274.49 138.693C271.443 138.867 267.793 139.143 263.54 139.523C259.287 139.91 253.253 140.397 245.44 140.983C237.633 141.57 229.78 142.083 221.88 142.523C213.98 142.963 205.877 143.447 197.57 143.973C189.263 144.5 181.24 144.893 173.5 145.153C165.76 145.42 158.257 145.583 150.99 145.643C143.723 145.703 136.54 145.733 129.44 145.733C122.347 145.733 118.507 145.69 117.92 145.603C117.333 145.517 116.763 145.36 116.21 145.133C115.657 144.907 115.14 144.617 114.66 144.263C114.18 143.917 113.75 143.513 113.37 143.053C112.983 142.6 112.66 142.107 112.4 141.573C112.14 141.033 111.947 140.473 111.82 139.893C111.693 139.313 111.637 138.73 111.65 138.143C111.663 137.543 111.75 136.957 111.91 136.383C112.07 135.81 112.297 135.263 112.59 134.743C112.877 134.223 113.223 133.747 113.63 133.313C114.037 132.88 114.49 132.5 114.99 132.173C115.49 131.847 116.02 131.587 116.58 131.393C117.147 131.193 117.727 131.067 118.32 131.013C118.907 130.96 119.2 130.933 119.2 130.933Z" fill="#4FBFFF"/>
<path d="M108.59 207.743C108.59 207.743 112.14 207.657 119.24 207.483C126.34 207.31 134.22 207.217 142.88 207.203C151.533 207.197 160.687 207.31 170.34 207.543C179.993 207.783 189.627 207.97 199.24 208.103C208.86 208.237 217.897 208.25 226.35 208.143C234.803 208.037 242.253 207.873 248.7 207.653C255.153 207.433 260.243 207.123 263.97 206.723C267.697 206.323 270.927 206.04 273.66 205.873C276.387 205.707 278.11 205.667 278.83 205.753C279.55 205.847 280.237 206.053 280.89 206.373C281.543 206.687 282.127 207.097 282.64 207.603C283.16 208.11 283.583 208.687 283.91 209.333C284.237 209.98 284.453 210.663 284.56 211.383C284.667 212.103 284.653 212.82 284.52 213.533C284.393 214.247 284.153 214.917 283.8 215.543C283.447 216.177 283.003 216.737 282.47 217.223C281.937 217.717 281.337 218.11 280.67 218.403C280.01 218.69 279.317 218.867 278.59 218.933C277.87 219 277.157 218.95 276.45 218.783C275.743 218.61 275.083 218.333 274.47 217.953C273.857 217.567 273.32 217.093 272.86 216.533C272.4 215.973 272.043 215.357 271.79 214.683C271.53 214.003 271.39 213.3 271.37 212.573C271.343 211.853 271.433 211.143 271.64 210.443C271.847 209.75 272.157 209.107 272.57 208.513C272.99 207.92 273.493 207.41 274.08 206.983C274.667 206.557 275.303 206.233 275.99 206.013C276.683 205.793 277.393 205.69 278.12 205.703C278.84 205.717 279.543 205.847 280.23 206.093C280.91 206.333 281.537 206.68 282.11 207.133C282.677 207.58 283.157 208.107 283.55 208.713C283.95 209.32 284.24 209.977 284.42 210.683C284.6 211.383 284.663 212.097 284.61 212.823C284.557 213.543 284.39 214.237 284.11 214.903C283.83 215.57 283.45 216.173 282.97 216.713C282.49 217.26 281.937 217.713 281.31 218.073C280.683 218.433 280.013 218.687 279.3 218.833C278.593 218.973 278.24 219.043 278.24 219.043C278.24 219.043 276.857 219.043 274.09 219.043C271.33 219.043 268.097 218.957 264.39 218.783C260.69 218.603 255.577 218.667 249.05 218.973C242.523 219.287 234.983 219.557 226.43 219.783C217.883 220.017 208.783 220.147 199.13 220.173C189.483 220.207 179.903 220.22 170.39 220.213C160.87 220.2 151.867 220.353 143.38 220.673C134.893 220.987 127.11 221.44 120.03 222.033C112.95 222.627 109.107 222.903 108.5 222.863C107.893 222.823 107.297 222.71 106.71 222.523C106.13 222.337 105.58 222.083 105.06 221.763C104.533 221.443 104.057 221.067 103.63 220.633C103.197 220.2 102.827 219.72 102.52 219.193C102.207 218.667 101.96 218.113 101.78 217.533C101.6 216.947 101.493 216.347 101.46 215.733C101.427 215.133 101.467 214.533 101.58 213.933C101.693 213.327 101.88 212.747 102.14 212.193C102.393 211.64 102.71 211.123 103.09 210.643C103.47 210.163 103.9 209.737 104.38 209.363C104.867 208.99 105.39 208.68 105.95 208.433C106.51 208.187 107.09 208.01 107.69 207.903C108.297 207.797 108.597 207.743 108.59 207.743Z" fill="#4FBFFF"/>
<path d="M200.82 152.723C200.82 152.723 200.25 155.39 199.11 160.723C197.977 166.057 197.027 172.14 196.26 178.973C195.5 185.807 194.927 192.587 194.54 199.313C194.147 206.04 193.847 212.75 193.64 219.443C193.427 226.137 193.353 232.697 193.42 239.123C193.493 245.557 193.677 251.373 193.97 256.573C194.257 261.78 194.69 266.023 195.27 269.303C195.85 272.583 196.45 275.89 197.07 279.223C197.69 282.557 198.167 285.733 198.5 288.753C198.833 291.78 198.923 293.77 198.77 294.723C198.617 295.683 198.313 296.593 197.86 297.453C197.413 298.313 196.837 299.08 196.13 299.753C195.43 300.42 194.64 300.96 193.76 301.373C192.887 301.787 191.967 302.047 191 302.153C190.04 302.267 189.083 302.22 188.13 302.013C187.183 301.807 186.293 301.457 185.46 300.963C184.627 300.463 183.893 299.843 183.26 299.103C182.627 298.37 182.13 297.553 181.77 296.653C181.403 295.753 181.193 294.817 181.14 293.843C181.08 292.877 181.18 291.923 181.44 290.983C181.693 290.05 182.09 289.18 182.63 288.373C183.17 287.567 183.827 286.867 184.6 286.273C185.373 285.687 186.217 285.237 187.13 284.923C188.05 284.61 188.997 284.45 189.97 284.443C190.937 284.443 191.883 284.593 192.81 284.893C193.723 285.2 194.567 285.647 195.34 286.233C196.12 286.82 196.783 287.513 197.33 288.313C197.877 289.113 198.283 289.98 198.55 290.913C198.81 291.853 198.917 292.807 198.87 293.773C198.817 294.74 198.613 295.677 198.26 296.583C197.907 297.483 197.417 298.307 196.79 299.053C196.163 299.793 195.437 300.417 194.61 300.923C193.777 301.423 192.89 301.78 191.95 301.993C191.003 302.207 190.047 302.263 189.08 302.163C188.113 302.063 187.19 301.81 186.31 301.403C185.423 301.003 184.627 300.47 183.92 299.803C183.213 299.137 182.63 298.377 182.17 297.523C181.717 296.663 181.407 295.757 181.24 294.803C181.08 293.843 181 293.363 181 293.363C181 293.363 181.127 291.96 181.38 289.153C181.633 286.34 181.887 283.35 182.14 280.183C182.4 277.01 182.52 273.68 182.5 270.193C182.48 266.707 182.363 262.307 182.15 256.993C181.937 251.687 181.717 245.743 181.49 239.163C181.27 232.577 181.163 225.89 181.17 219.103C181.177 212.317 181.24 205.447 181.36 198.493C181.48 191.547 181.757 184.417 182.19 177.103C182.623 169.79 183.23 163.433 184.01 158.033C184.79 152.64 185.273 149.637 185.46 149.023C185.647 148.417 185.903 147.837 186.23 147.283C186.563 146.737 186.953 146.237 187.4 145.783C187.847 145.33 188.343 144.937 188.89 144.603C189.437 144.27 190.013 144.007 190.62 143.813C191.233 143.62 191.857 143.503 192.49 143.463C193.123 143.423 193.753 143.46 194.38 143.573C195.013 143.687 195.62 143.87 196.2 144.123C196.787 144.383 197.33 144.71 197.83 145.103C198.337 145.497 198.787 145.943 199.18 146.443C199.58 146.943 199.913 147.483 200.18 148.063C200.44 148.65 200.63 149.257 200.75 149.883C200.87 150.51 200.91 151.14 200.87 151.773C200.837 152.407 200.82 152.723 200.82 152.723Z" fill="#4FBFFF"/>
<path d="M227.9 240.773C227.9 240.773 228.653 242.693 230.16 246.533C231.667 250.373 233.337 253.737 235.17 256.623C237.003 259.503 238.27 261.403 238.97 262.323C239.663 263.243 240.23 264.233 240.67 265.293C241.11 266.353 241.37 267.453 241.45 268.593C241.53 269.74 241.427 270.867 241.14 271.973C240.853 273.08 240.397 274.113 239.77 275.073C239.137 276.033 238.37 276.867 237.47 277.573C236.57 278.28 235.58 278.827 234.5 279.213C233.42 279.593 232.307 279.793 231.16 279.813C230.013 279.833 228.897 279.667 227.81 279.313C226.717 278.967 225.707 278.453 224.78 277.773C223.86 277.093 223.07 276.287 222.41 275.353C221.75 274.413 221.26 273.393 220.94 272.293C220.613 271.193 220.473 270.07 220.52 268.923C220.56 267.783 220.787 266.677 221.2 265.603C221.607 264.53 222.173 263.55 222.9 262.663C223.627 261.783 224.477 261.04 225.45 260.433C226.423 259.827 227.467 259.39 228.58 259.123C229.693 258.863 230.82 258.787 231.96 258.893C233.107 258.993 234.203 259.277 235.25 259.743C236.297 260.21 237.24 260.83 238.08 261.603C238.927 262.377 239.627 263.267 240.18 264.273C240.733 265.273 241.11 266.34 241.31 267.473C241.517 268.6 241.537 269.73 241.37 270.863C241.203 271.997 240.857 273.073 240.33 274.093C239.81 275.113 239.14 276.023 238.32 276.823C237.5 277.623 236.577 278.273 235.55 278.773C234.517 279.273 233.43 279.593 232.29 279.733C231.157 279.873 230.027 279.83 228.9 279.603C227.78 279.377 226.723 278.973 225.73 278.393C224.737 277.82 223.863 277.103 223.11 276.243C222.357 275.377 221.98 274.947 221.98 274.953C221.98 274.953 221.72 274.437 221.2 273.403C220.68 272.377 219.48 269.78 217.6 265.613C215.72 261.447 214 257.45 212.44 253.623C210.88 249.803 210.003 247.52 209.81 246.773C209.61 246.027 209.503 245.27 209.49 244.503C209.477 243.737 209.557 242.977 209.73 242.223C209.897 241.477 210.153 240.757 210.5 240.063C210.847 239.377 211.27 238.74 211.77 238.153C212.27 237.573 212.833 237.057 213.46 236.603C214.087 236.157 214.757 235.79 215.47 235.503C216.183 235.217 216.923 235.02 217.69 234.913C218.45 234.807 219.21 234.793 219.97 234.873C220.737 234.953 221.483 235.123 222.21 235.383C222.937 235.643 223.62 235.987 224.26 236.413C224.9 236.84 225.48 237.337 226 237.903C226.527 238.47 226.973 239.09 227.34 239.763C227.713 240.443 227.9 240.783 227.9 240.783V240.773Z" fill="#4FBFFF"/>
<path d="M114.47 282.093C114.47 282.093 118.377 283.54 126.19 286.433C134.01 289.327 141.903 291.757 149.87 293.723C157.843 295.69 165.727 297.11 173.52 297.983C181.32 298.85 189.163 299.493 197.05 299.913C204.937 300.327 213.913 300.883 223.98 301.583C234.047 302.283 242.637 302.913 249.75 303.473C256.87 304.033 262.687 304.447 267.2 304.713C271.72 304.973 275.773 305.027 279.36 304.873C282.947 304.72 285.14 304.75 285.94 304.963C286.747 305.177 287.497 305.513 288.19 305.973C288.883 306.433 289.487 306.99 290 307.643C290.513 308.303 290.907 309.027 291.18 309.813C291.453 310.593 291.597 311.4 291.61 312.233C291.623 313.067 291.5 313.88 291.24 314.673C290.987 315.467 290.61 316.197 290.11 316.863C289.617 317.53 289.027 318.103 288.34 318.583C287.66 319.057 286.92 319.41 286.12 319.643C285.32 319.877 284.507 319.973 283.68 319.933C282.847 319.9 282.04 319.733 281.26 319.433C280.487 319.14 279.78 318.727 279.14 318.193C278.493 317.66 277.953 317.04 277.52 316.333C277.08 315.627 276.767 314.867 276.58 314.053C276.387 313.247 276.33 312.427 276.41 311.593C276.49 310.767 276.703 309.973 277.05 309.213C277.39 308.453 277.84 307.767 278.4 307.153C278.967 306.547 279.617 306.043 280.35 305.643C281.077 305.243 281.85 304.973 282.67 304.833C283.49 304.687 284.313 304.677 285.14 304.803C285.96 304.923 286.74 305.173 287.48 305.553C288.22 305.94 288.88 306.43 289.46 307.023C290.04 307.623 290.51 308.297 290.87 309.043C291.23 309.797 291.46 310.587 291.56 311.413C291.66 312.24 291.623 313.06 291.45 313.873C291.283 314.693 290.99 315.46 290.57 316.173C290.15 316.893 289.623 317.527 288.99 318.073C288.363 318.62 287.667 319.053 286.9 319.373C286.127 319.687 285.327 319.87 284.5 319.923C283.667 319.983 283.25 320.013 283.25 320.013C283.25 320.013 281.49 319.593 277.97 318.753C274.45 317.913 270.51 317.163 266.15 316.503C261.79 315.837 256.067 315.27 248.98 314.803C241.893 314.337 233.357 313.817 223.37 313.243C213.377 312.677 204.317 312.26 196.19 311.993C188.063 311.733 179.823 311.24 171.47 310.513C163.11 309.787 154.673 308.527 146.16 306.733C137.647 304.947 129.413 302.807 121.46 300.313C113.507 297.82 109.253 296.44 108.7 296.173C108.147 295.907 107.63 295.577 107.15 295.183C106.677 294.79 106.257 294.347 105.89 293.853C105.523 293.36 105.223 292.83 104.99 292.263C104.75 291.69 104.583 291.1 104.49 290.493C104.397 289.887 104.377 289.28 104.43 288.673C104.483 288.06 104.61 287.463 104.81 286.883C105.01 286.297 105.277 285.747 105.61 285.233C105.943 284.713 106.333 284.24 106.78 283.813C107.227 283.393 107.717 283.03 108.25 282.723C108.783 282.423 109.347 282.19 109.94 282.023C110.533 281.857 111.137 281.763 111.75 281.743C112.363 281.717 112.97 281.77 113.57 281.903C114.17 282.03 114.47 282.093 114.47 282.093Z" fill="#4FBFFF"/>
</svg>
